<?xml version="1.0" encoding="UTF-8"?>
<svg xmlns="http://www.w3.org/2000/svg" version="1.1" viewBox="0 0 1000 1000">
  <!-- Generator: Adobe Illustrator 29.5.1, SVG Export Plug-In . SVG Version: 2.1.0 Build 141)  -->
  <defs>
    <style>
      .st0, .st1 {
        fill: none;
        stroke: #fff;
        stroke-linejoin: round;
        stroke-width: 50px;
      }

      .st2 {
        display: none;
      }

      .st1 {
        stroke-linecap: round;
      }
    </style>
  </defs>
  <g id="Camada_2" class="st2">
    <rect width="1000" height="1000"/>
  </g>
  <g id="Camada_1">
    <polygon class="st0" points="869.12 290.01 866.39 714.69 499.38 923.45 497.29 924.65 130.88 709.95 133.61 286.92 133.61 285.31 502.75 75.35 866.39 288.41 867.11 288.85 869.12 290.01"/>
    <polygon class="st0" points="869.12 290.01 866.39 714.69 499.38 923.45 497.29 922.24 500.02 499.26 500.02 497.61 866.39 289.25 867.11 288.85 869.12 290.01"/>
    <polygon class="st0" points="866.39 288.41 866.39 290.01 497.29 499.98 133.61 286.92 133.61 285.31 502.75 75.35 866.39 288.41"/>
    <line class="st0" x1="669.2" y1="166.99" x2="325.38" y2="393.39"/>
    <line class="st1" x1="651.24" y1="504.63" x2="753.04" y2="447.69"/>
  </g>
</svg>