<?xml version="1.0" encoding="UTF-8"?>
<svg id="Camada_1" xmlns="http://www.w3.org/2000/svg" version="1.1" viewBox="0 0 1000 1000">
  <!-- Generator: Adobe Illustrator 29.5.1, SVG Export Plug-In . SVG Version: 2.1.0 Build 141)  -->
  <defs>
    <style>
      .st0 {
        stroke-linecap: round;
      }

      .st0, .st1 {
        fill: none;
        stroke: #fff;
        stroke-linejoin: round;
        stroke-width: 30px;
      }

      .st2, .st3 {
        fill: #fff;
      }

      .st3, .st4 {
        display: none;
      }
    </style>
  </defs>
  <g id="Camada_2" class="st4">
    <rect width="1000" height="1000"/>
  </g>
  <g id="Camada_11" data-name="Camada_1" class="st4">
    <g>
      <polygon class="st1" points="869.12 290.01 866.39 714.69 499.38 923.45 497.29 924.65 130.88 709.95 133.61 286.92 133.61 285.31 502.75 75.35 866.39 288.41 867.11 288.85 869.12 290.01"/>
      <polygon class="st1" points="869.12 290.01 866.39 714.69 499.38 923.45 497.29 922.24 500.02 499.26 500.02 497.61 866.39 289.25 867.11 288.85 869.12 290.01"/>
      <polygon class="st1" points="866.39 288.41 866.39 290.01 497.29 499.98 133.61 286.92 133.61 285.31 502.75 75.35 866.39 288.41"/>
      <line class="st1" x1="669.2" y1="166.99" x2="325.38" y2="393.39"/>
      <line class="st0" x1="651.24" y1="504.63" x2="753.04" y2="447.69"/>
    </g>
  </g>
  <g id="Camada_3">
    <g>
      <path class="st2" d="M500.01,679.42c99.08,0,179.42-80.34,179.42-179.42s-80.34-179.42-179.42-179.42-179.42,80.34-179.42,179.42,80.31,179.42,179.42,179.42ZM500.01,343.05c86.66,0,156.96,70.26,156.96,156.96s-70.3,156.96-156.96,156.96v-313.91h0Z"/>
      <g>
        <g id="_x3C_Repetição_radial_x3E_">
          <path class="st2" d="M499.72,89.29h0c18.27,0,33.08,14.81,33.08,33.08v108c0,18.27-14.81,33.08-33.08,33.08h0c-18.27,0-33.08-14.81-33.08-33.08v-108c0-18.27,14.81-33.08,33.08-33.08Z"/>
        </g>
        <g id="_x3C_Repetição_radial_x3E_1">
          <path class="st2" d="M790.16,209.34h0c12.93,12.91,12.94,33.85.04,46.78l-76.3,76.43c-12.91,12.93-33.85,12.95-46.78.04h0c-12.93-12.91-12.94-33.85-.04-46.78l76.3-76.43c12.91-12.93,33.85-12.95,46.78-.04Z"/>
        </g>
        <g id="_x3C_Repetição_radial_x3E_2">
          <path class="st2" d="M910.71,499.63h0c.02,18.27-14.78,33.09-33.05,33.1l-108,.09c-18.27.02-33.09-14.78-33.11-33.05h0c-.02-18.27,14.78-33.09,33.05-33.1l108-.09c18.27-.02,33.09,14.78,33.11,33.05Z"/>
        </g>
        <g id="_x3C_Repetição_radial_x3E_3">
          <path class="st2" d="M790.68,790.16h0c-12.91,12.93-33.85,12.94-46.78.04l-76.43-76.3c-12.93-12.91-12.95-33.85-.04-46.78h0c12.91-12.93,33.85-12.94,46.78-.04l76.43,76.3c12.93,12.91,12.95,33.85.04,46.78Z"/>
        </g>
        <g id="_x3C_Repetição_radial_x3E_4">
          <path class="st2" d="M500.36,910.72h0c-18.27.02-33.09-14.78-33.1-33.05l-.09-108c-.02-18.27,14.78-33.09,33.05-33.11h0c18.27-.02,33.09,14.78,33.1,33.05l.09,108c.02,18.27-14.78,33.09-33.05,33.11Z"/>
        </g>
        <g id="_x3C_Repetição_radial_x3E_5">
          <path class="st2" d="M209.83,790.67h0c-12.93-12.91-12.94-33.85-.04-46.78l76.3-76.43c12.91-12.93,33.85-12.95,46.78-.04h0c12.93,12.91,12.94,33.85.04,46.78l-76.3,76.43c-12.91,12.93-33.85,12.95-46.78.04Z"/>
        </g>
        <g id="_x3C_Repetição_radial_x3E_6">
          <rect class="st2" x="89.29" y="467.21" width="174.16" height="66.15" rx="33.07" ry="33.07"/>
        </g>
        <g id="_x3C_Repetição_radial_x3E_7">
          <path class="st2" d="M209.33,209.84h0c12.91-12.93,33.85-12.94,46.78-.04l76.43,76.3c12.93,12.91,12.95,33.85.04,46.78h0c-12.91,12.93-33.85,12.94-46.78.04l-76.43-76.3c-12.93-12.91-12.95-33.85-.04-46.78Z"/>
        </g>
      </g>
    </g>
  </g>
  <g id="Camada_4" class="st4">
    <path class="st2" d="M254.25,744.38h52.89l294.54-294.54-51.07-51.98-296.36,296.36v50.15h0ZM140.26,859.28v-213.38l479.65-479.65c8.51-8.51,18.09-14.89,28.72-19.15,10.64-4.26,21.73-6.38,33.28-6.38,10.94,0,21.89,2.13,32.83,6.38,10.94,4.26,20.97,10.64,30.09,19.15l89.36,87.54c8.51,8.51,14.89,18.39,19.15,29.64s6.38,22.64,6.38,34.2-2.13,22.8-6.38,33.74c-4.26,10.94-10.64,20.67-19.15,29.18l-478.74,478.74h-215.2.01ZM734.81,317.62l-51.98-52.89,51.98,52.89ZM576.14,423.4l-25.53-25.53,51.07,51.98-25.53-26.44h0Z"/>
    <path class="st3" d="M313.4,859.05c-31.25,0-57.63-10.76-79.15-32.28-21.52-21.52-32.28-47.9-32.28-79.15v-411.67c0-15.39-12.47-27.86-27.86-27.86h0c-15.39,0-27.86-12.47-27.86-27.86v-55.71c0-15.39,12.47-27.86,27.86-27.86h171.57c15.39,0,27.86-12.47,27.86-27.86h0c0-15.39,12.47-27.86,27.86-27.86h195.44c15.39,0,27.86,12.47,27.86,27.86h0c0,15.39,12.47,27.86,27.86,27.86h173.33c15.39,0,27.86,12.47,27.86,27.86v55.71c0,15.39-12.47,27.86-27.86,27.86h0c-15.39,0-27.86,12.47-27.86,27.86v411.67c0,31.25-10.76,57.63-32.28,79.15-21.52,21.52-47.9,32.28-79.15,32.28h-373.2,0ZM658.74,308.09h-317.49c-15.39,0-27.86,12.47-27.86,27.86v383.81c0,15.39,12.47,27.86,27.86,27.86h317.49c15.39,0,27.86-12.47,27.86-27.86v-383.81c0-15.39-12.47-27.86-27.86-27.86h0ZM405.82,686.6h35.37c15.39,0,27.86-12.47,27.86-27.86v-262.66c0-15.39-12.47-27.86-27.86-27.86h-35.37c-15.39,0-27.86,12.47-27.86,27.86v262.66c0,15.39,12.47,27.86,27.86,27.86ZM558.81,686.6h35.37c15.39,0,27.86-12.47,27.86-27.86v-262.66c0-15.39-12.47-27.86-27.86-27.86h-35.37c-15.39,0-27.86,12.47-27.86,27.86v262.66c0,15.39,12.47,27.86,27.86,27.86ZM313.4,308.09v439.53-439.53Z"/>
  </g>
</svg>